<?xml version="1.0" standalone="no"?>
<!DOCTYPE svg PUBLIC "-//W3C//DTD SVG 20010904//EN"
 "http://www.w3.org/TR/2001/REC-SVG-20010904/DTD/svg10.dtd">
<svg version="1.0" xmlns="http://www.w3.org/2000/svg"
 width="500.000000pt" height="500.000000pt" viewBox="0 0 500.000000 500.000000"
 preserveAspectRatio="xMidYMid meet">
<metadata>
Created by potrace 1.14, written by Peter Selinger 2001-2017
</metadata>
<g transform="translate(0.000000,500.000000) scale(0.100000,-0.100000)"
fill="#000000" stroke="none">
<path d="M0 2500 l0 -2500 2500 0 2500 0 0 2500 0 2500 -2500 0 -2500 0 0
-2500z m2768 744 c223 -50 402 -230 468 -474 25 -91 26 -329 1 -420 -41 -151
-127 -287 -232 -367 -75 -56 -111 -75 -205 -104 -65 -21 -95 -24 -220 -24
-130 1 -153 3 -220 27 -112 40 -167 74 -250 157 -128 128 -187 272 -197 481
-24 508 362 835 855 724z m-2288 -304 l0 -300 360 0 360 0 0 300 0 300 80 0
80 0 0 -685 0 -685 -80 0 -80 0 0 314 c0 272 -2 315 -15 320 -9 3 -169 5 -358
3 l-342 -2 -3 -317 -2 -318 -80 0 -80 0 0 685 0 685 80 0 80 0 0 -300z m3911
290 c131 -24 245 -114 291 -228 33 -83 32 -232 -1 -317 -32 -81 -125 -174
-198 -200 -29 -11 -53 -23 -53 -29 0 -5 65 -137 145 -293 80 -156 145 -286
145 -288 0 -3 -42 -5 -93 -5 l-94 0 -138 285 -139 285 -143 0 -143 0 0 -285 0
-285 -80 0 -80 0 0 685 0 685 264 0 c145 0 288 -5 317 -10z"/>
<path d="M2439 3106 c-171 -48 -301 -188 -346 -373 -21 -91 -21 -268 1 -353
63 -245 240 -387 483 -389 253 -2 435 139 499 389 23 88 23 272 -1 360 -49
187 -176 320 -348 366 -64 17 -226 17 -288 0z"/>
<path d="M3970 2836 l0 -276 118 0 c283 0 374 34 431 160 24 52 28 159 9 221
-16 56 -69 113 -130 140 -48 21 -71 23 -240 27 l-188 4 0 -276z"/>
</g>
</svg>
